HIERARCHY
ROOT Hips
{
	OFFSET	0.00	0.00	0.00
	CHANNELS 6 Xposition Yposition Zposition Zrotation Xrotation Yrotation
	JOINT LeftUpLeg
	{
		OFFSET	 0.126116	-0.014019	-0.065224
		CHANNELS 3 Zrotation Xrotation Yrotation
		JOINT LeftLeg
		{
			OFFSET	 0.000000	 0.000000	 0.569914
			CHANNELS 3 Zrotation Xrotation Yrotation
			JOINT LeftFoot
			{
				OFFSET	 0.000000	 0.000000	 0.544423
				CHANNELS 3 Zrotation Xrotation Yrotation
				JOINT LeftToeBase
				{
					OFFSET	 0.000000	 0.000000	 0.207117
					CHANNELS 3 Zrotation Xrotation Yrotation
					End Site
					{
						OFFSET	 0.000000	 0.000000	 0.207117
					}
				}
			}
		}
	}
	JOINT RightUpLeg
	{
		OFFSET	-0.124023	-0.008373	-0.065224
		CHANNELS 3 Zrotation Xrotation Yrotation
		JOINT RightLeg
		{
			OFFSET	 0.000000	 0.000000	 0.570047
			CHANNELS 3 Zrotation Xrotation Yrotation
			JOINT RightFoot
			{
				OFFSET	 0.000000	 0.000000	 0.544354
				CHANNELS 3 Zrotation Xrotation Yrotation
				JOINT RightToeBase
				{
					OFFSET	 0.000000	 0.000000	 0.207540
					CHANNELS 3 Zrotation Xrotation Yrotation
					End Site
					{
						OFFSET	 0.000000	 0.000000	 0.207540
					}
				}
			}
		}
	}
	JOINT Spine
	{
		OFFSET	 0.000184	-0.007763	 0.117403
		CHANNELS 3 Zrotation Xrotation Yrotation
		JOINT Spine1
		{
			OFFSET	 0.000000	 0.000000	 0.137269
			CHANNELS 3 Zrotation Xrotation Yrotation
			JOINT Spine2
			{
				OFFSET	 0.000000	 0.000000	 0.156879
				CHANNELS 3 Zrotation Xrotation Yrotation
				JOINT LeftShoulder
				{
					OFFSET	 0.080501	-0.002496	 0.160144
					CHANNELS 3 Zrotation Xrotation Yrotation
					JOINT LeftArm
					{
						OFFSET	 0.000000	 0.000000	 0.164363
						CHANNELS 3 Zrotation Xrotation Yrotation
						JOINT LeftForeArm
						{
							OFFSET	 0.000000	 0.000000	 0.364576
							CHANNELS 3 Zrotation Xrotation Yrotation
							JOINT LeftHand
							{
								OFFSET	 0.000000	 0.000000	 0.360812
								CHANNELS 3 Zrotation Xrotation Yrotation
								JOINT LeftHandIndex1
								{
									OFFSET	 0.000000	 0.000000	 0.086006
									CHANNELS 3 Zrotation Xrotation Yrotation
									JOINT LeftHandIndex2
									{
										OFFSET	 0.000000	 0.000000	 0.047236
										CHANNELS 3 Zrotation Xrotation Yrotation
										JOINT LeftHandIndex3
										{
											OFFSET	-0.004284	-0.000551	 0.038166
											CHANNELS 3 Zrotation Xrotation Yrotation
											End Site
											{
												OFFSET	-0.004284	-0.000551	 0.038166
											}
										}
									}
								}
							}
						}
					}
				}
				JOINT Neck
				{
					OFFSET	 0.000000	 0.000000	 0.176489
					CHANNELS 3 Zrotation Xrotation Yrotation
					JOINT Head
					{
						OFFSET	 0.000000	-0.001747	 0.077940
						CHANNELS 3 Zrotation Xrotation Yrotation
						End Site
						{
							OFFSET	 0.000000	-0.001747	 0.077940
						}
					}
				}
				JOINT RightShoulder
				{
					OFFSET	-0.080363	 0.000306	 0.159706
					CHANNELS 3 Zrotation Xrotation Yrotation
					JOINT RightArm
					{
						OFFSET	 0.000000	 0.000000	 0.164196
						CHANNELS 3 Zrotation Xrotation Yrotation
						JOINT RightForeArm
						{
							OFFSET	 0.000000	 0.000000	 0.365611
							CHANNELS 3 Zrotation Xrotation Yrotation
							JOINT RightHand
							{
								OFFSET	 0.000000	 0.000000	 0.360648
								CHANNELS 3 Zrotation Xrotation Yrotation
								JOINT RightHandIndex1
								{
									OFFSET	 0.000000	 0.000000	 0.069977
									CHANNELS 3 Zrotation Xrotation Yrotation
									JOINT RightHandIndex2
									{
										OFFSET	 0.000000	 0.000000	 0.052305
										CHANNELS 3 Zrotation Xrotation Yrotation
										JOINT RightHandIndex3
										{
											OFFSET	 0.009002	-0.000782	 0.042196
											CHANNELS 3 Zrotation Xrotation Yrotation
											End Site
											{
												OFFSET	 0.009002	-0.000782	 0.042196
											}
										}
									}
								}
							}
						}
					}
				}
			}
		}
	}
}
MOTION
Frames:    12
Frame Time: 0.03333334
-9.249428	-31.703580	 0.946279	-31.677300	 17.245900	 3.758459	 3.478669	-34.893270	 175.312100	-1.184054	-43.123630	-0.262647	-0.696873	 80.783820	 0.555083	-2.351525	 34.270520	-0.131457	-0.728862	-36.116250	-179.535200	-3.024889	-43.193280	-0.979320	-1.599407	 80.970430	 0.467594	 2.406751	 19.741090	-0.178234	-5.978916	 15.612000	 2.748120	-10.140720	 3.222275	-1.567720	-12.861670	-2.377509	-1.120508	-125.751000	 89.282080	-141.813000	 54.475490	 65.756680	-61.331550	-19.462850	 3.637248	-29.108140	-4.906489	-12.707490	-5.975926	-5.706817	-12.299770	-1.423575	-5.213516	-0.193813	 3.566525	-1.378229	 35.397820	-2.634230	 0.815120	 0.164398	-3.821601	-3.158273	-7.020975	 0.750223	 93.697360	 85.940440	 172.005100	-61.821440	 74.513030	 71.509000	 5.918571	-8.654179	 40.306270	-20.232920	-13.447200	 10.342780	-9.981873	-10.153370	-38.969570	 5.070815	-0.697434	-9.399699	-2.350882	 35.473990	 5.254307
-9.251905	-31.710360	 0.946841	-31.576230	 17.570820	 3.771104	 3.588128	-34.867190	 175.473800	-1.564184	-43.057420	-0.461250	-0.820963	 81.116000	 0.437136	-2.353699	 33.977770	-0.124527	-0.751224	-35.953080	-179.460000	-2.892762	-42.908470	-0.905383	-1.603665	 81.523720	 0.586622	 2.406504	 20.032100	-0.172466	-5.958805	 15.494120	 2.637533	-10.137300	 3.088332	-1.622282	-12.884300	-2.557316	-1.142656	-125.389300	 89.274760	-142.171300	 56.614790	 66.408040	-62.054950	-19.130850	 3.499306	-28.379240	-4.685320	-12.758630	-5.983277	-5.562922	-12.099320	-1.106761	-5.213516	-0.193813	 3.566525	-1.378229	 35.397820	-2.634230	 0.790312	 0.066980	-3.769833	-3.175812	-7.283137	 0.835676	 93.696820	 85.959690	 172.035600	-60.159810	 75.661160	 69.040780	 5.624430	-8.182406	 37.141850	-21.061380	-13.477360	 10.351150	-9.747188	-9.683623	-38.758480	 5.070815	-0.697434	-9.399699	-2.350882	 35.473990	 5.254307
-9.254228	-31.716510	 0.947065	-31.514120	 17.867910	 3.785504	 3.615241	-34.919640	 175.550700	-1.830985	-43.108940	-0.630363	-0.918658	 81.434730	 0.331533	-2.353406	 34.017460	-0.125458	-0.770271	-35.824050	-179.396600	-2.740530	-42.702880	-0.815622	-1.586874	 82.046010	 0.700928	 2.406052	 20.471290	-0.163733	-5.907861	 15.366990	 2.539289	-10.114370	 2.972441	-1.677495	-12.914250	-2.709786	-1.162475	-124.716300	 89.259810	-142.825900	 58.521530	 66.931620	-62.721750	-18.766160	 3.372101	-27.757120	-4.451533	-12.805920	-5.989714	-5.392337	-11.946670	-0.723160	-5.213516	-0.193813	 3.566525	-1.378229	 35.397820	-2.634230	 0.758964	-0.036780	-3.693050	-3.216045	-7.507226	 0.820190	 93.684920	 85.976550	 172.085200	-57.620100	 76.799830	 65.557930	 5.388564	-7.794707	 34.602150	-21.880310	-13.503710	 10.360440	-9.519698	-9.229448	-38.550060	 5.070815	-0.697434	-9.399699	-2.350882	 35.473990	 5.254307
-9.256599	-31.722310	 0.947143	-31.510470	 18.142890	 3.804208	 3.587792	-34.960810	 175.580300	-1.983329	-43.233040	-0.755045	-0.992932	 81.739560	 0.257413	-2.351227	 34.310910	-0.132416	-0.765966	-35.690060	-179.417800	-2.591173	-42.538060	-0.712915	-1.551083	 82.504100	 0.807045	 2.405534	 20.904980	-0.155085	-5.832357	 15.237140	 2.473503	-10.072080	 2.859591	-1.720361	-12.941690	-2.849301	-1.180672	-123.640800	 89.234850	-143.871800	 60.277230	 67.378810	-63.346870	-18.361670	 3.245263	-27.202320	-4.183589	-12.851500	-5.995518	-5.156913	-11.718830	-0.191325	-5.213516	-0.193813	 3.566525	-1.378229	 35.397820	-2.634230	 0.734099	-0.155433	-3.602435	-3.269419	-7.718008	 0.718593	 93.662180	 85.992880	 172.155800	-54.320070	 77.855160	 61.280980	 5.196546	-7.486580	 32.598520	-22.678220	-13.541540	 10.353300	-9.303021	-8.788314	-38.354690	 5.070815	-0.697434	-9.399699	-2.350882	 35.473990	 5.254307
-9.258896	-31.727960	 0.947171	-31.575350	 18.377360	 3.828412	 3.562847	-34.974430	 175.617200	-2.053611	-43.397360	-0.824876	-1.038893	 82.022410	 0.219825	-2.347760	 34.765140	-0.143235	-0.750860	-35.523120	-179.450800	-2.443578	-42.390820	-0.605312	-1.500301	 82.863810	 0.898330	 2.405089	 21.236750	-0.148449	-5.730111	 15.127650	 2.430538	-9.999102	 2.728804	-1.736176	-12.945550	-3.002012	-1.198235	-122.079200	 89.194730	-145.394300	 61.896740	 67.785480	-63.910980	-17.948090	 3.122922	-26.697960	-3.895616	-12.895150	-6.000953	-4.836607	-11.412280	 0.539131	-5.213516	-0.193813	 3.566525	-1.378229	 35.397820	-2.634230	 0.736665	-0.297867	-3.513784	-3.310842	-7.935503	 0.620659	 93.660320	 86.026150	 172.208800	-50.267210	 78.795990	 56.254380	 5.063779	-7.244365	 31.048530	-23.421450	-13.579030	 10.344880	-9.105845	-8.368199	-38.187580	 5.070815	-0.697434	-9.399699	-2.350882	 35.473990	 5.254307
-9.260966	-31.733020	 0.947226	-31.693410	 18.569730	 3.859176	 3.547286	-34.976190	 175.627300	-2.079587	-43.552070	-0.858448	-1.066396	 82.247640	 0.206906	-2.343999	 35.239710	-0.154655	-0.739626	-35.360250	-179.483200	-2.334070	-42.287660	-0.525353	-1.460715	 83.107930	 0.963427	 2.404851	 21.404490	-0.145085	-5.619819	 15.031500	 2.389164	-9.912165	 2.590804	-1.716316	-12.929400	-3.155799	-1.214023	-120.177200	 89.142480	-147.255500	 63.205280	 68.171940	-64.313080	-17.637940	 3.024444	-26.276600	-3.644087	-12.933620	-6.005822	-4.507798	-11.101400	 1.297170	-5.213516	-0.193813	 3.566525	-1.378229	 35.397820	-2.634230	 0.762401	-0.429192	-3.438755	-3.337825	-8.143785	 0.585737	 93.716740	 86.094850	 172.198200	-46.078280	 79.518100	 51.226090	 5.003221	-7.026563	 29.869420	-24.007790	-13.612820	 10.337170	-8.955327	-8.018536	-38.078990	 5.070815	-0.697434	-9.399699	-2.350882	 35.473990	 5.254307
-9.262878	-31.737690	 0.947381	-31.839630	 18.742000	 3.899813	 3.544899	-34.934410	 175.642200	-2.105977	-43.667230	-0.884092	-1.090283	 82.411360	 0.200525	-2.340588	 35.655530	-0.164745	-0.732736	-35.251270	-179.538500	-2.285160	-42.220880	-0.488114	-1.444680	 83.260480	 0.998765	 2.404730	 21.492730	-0.143311	-5.518346	 14.938290	 2.328587	-9.826134	 2.455654	-1.672077	-12.899190	-3.301451	-1.227502	-117.943400	 89.076770	-149.466600	 64.261410	 68.551940	-64.571560	-17.460890	 2.959773	-25.918100	-3.469965	-12.968910	-6.010910	-4.253694	-10.834120	 1.888112	-5.213516	-0.193813	 3.566525	-1.378229	 35.397820	-2.634230	 0.799969	-0.510417	-3.360615	-3.351918	-8.354351	 0.603935	 93.817320	 86.188230	 172.139100	-41.900750	 80.054180	 46.308680	 5.030095	-6.814551	 28.971810	-24.419310	-13.644090	 10.331180	-8.846995	-7.750401	-38.011840	 5.070815	-0.697434	-9.399699	-2.350882	 35.473990	 5.254307
-9.264714	-31.742420	 0.947732	-32.015690	 18.931120	 3.944581	 3.557814	-34.864570	 175.676700	-2.175917	-43.712730	-0.929109	-1.123235	 82.509350	 0.182393	-2.337185	 36.059200	-0.174611	-0.736200	-35.290050	-179.573900	-2.344197	-42.174580	-0.530102	-1.480664	 83.337290	 0.992845	 2.404634	 21.548470	-0.142189	-5.429491	 14.823720	 2.239556	-9.742484	 2.316333	-1.600051	-12.848840	-3.446434	-1.238873	-115.186300	 88.984520	-152.219800	 65.190320	 68.956180	-64.726660	-17.404580	 2.926185	-25.584220	-3.372797	-13.005440	-6.016923	-4.084005	-10.639670	 2.285614	-5.213516	-0.193813	 3.566525	-1.378229	 35.397820	-2.634230	 0.846367	-0.540738	-3.252320	-3.345584	-8.579083	 0.656471	 93.969370	 86.309390	 172.026700	-37.516350	 80.455420	 41.189020	 5.173216	-6.573577	 28.250470	-24.646660	-13.676370	 10.326670	-8.763373	-7.581564	-37.932550	 5.070815	-0.697434	-9.399699	-2.350882	 35.473990	 5.254307
-9.266551	-31.747230	 0.948463	-32.203840	 19.143640	 3.955559	 3.571274	-34.806050	 175.718800	-2.288939	-43.665480	-0.999336	-1.164087	 82.509410	 0.145109	-2.333706	 36.458070	-0.184455	-0.769501	-35.323940	-179.534300	-2.443537	-42.142440	-0.616855	-1.547954	 83.361080	 0.964761	 2.404603	 21.572780	-0.141705	-5.358838	 14.678440	 2.158650	-9.666255	 2.170964	-1.505007	-12.777190	-3.594082	-1.248317	-112.158400	 88.859450	-155.260100	 66.003400	 69.329840	-64.883900	-17.436210	 2.915696	-25.288470	-3.327028	-13.043130	-6.023737	-3.987840	-10.606100	 2.512611	-5.213516	-0.193813	 3.566525	-1.378229	 35.397820	-2.634230	 0.890053	-0.584476	-3.105112	-3.309767	-8.757310	 0.743541	 94.186200	 86.447300	 171.827000	-33.445430	 80.689830	 36.411600	 5.240964	-6.375689	 27.716330	-24.838930	-13.708750	 10.323920	-8.720855	-7.565402	-37.842590	 5.070815	-0.697434	-9.399699	-2.350882	 35.473990	 5.254307
-9.267900	-31.750690	 0.949226	-32.352440	 19.307330	 3.937778	 3.575681	-34.792260	 175.747400	-2.395231	-43.605550	-1.068273	-1.197034	 82.453950	 0.103338	-2.331131	 36.746160	-0.191608	-0.803091	-35.390860	-179.463900	-2.522486	-42.119800	-0.690648	-1.606794	 83.383430	 0.942430	 2.404574	 21.589420	-0.141367	-5.315855	 14.569050	 2.120539	-9.612115	 2.065823	-1.425567	-12.714080	-3.698470	-1.253640	-110.393600	 88.771400	-157.038700	 66.540860	 69.561260	-65.041140	-17.401320	 2.887050	-25.072580	-3.214674	-13.072340	-6.028478	-3.936233	-10.735780	 2.635297	-5.213516	-0.193813	 3.566525	-1.378229	 35.397820	-2.634230	 0.918605	-0.648137	-2.982325	-3.271292	-8.825640	 0.834368	 94.381150	 86.552350	 171.630100	-30.696810	 80.780790	 33.171480	 5.230708	-6.272534	 27.442030	-24.995530	-13.732540	 10.323250	-8.694879	-7.587897	-37.764650	 5.070815	-0.697434	-9.399699	-2.350882	 35.473990	 5.254307
-9.269311	-31.754090	 0.950036	-32.513360	 19.477130	 3.915137	 3.575924	-34.787200	 175.766700	-2.516325	-43.526140	-1.148407	-1.233256	 82.367250	 0.052844	-2.328613	 37.022870	-0.198515	-0.839819	-35.447110	-179.386500	-2.606819	-42.088570	-0.769977	-1.670988	 83.401360	 0.919001	 2.404535	 21.616440	-0.140822	-5.273236	 14.457500	 2.104556	-9.554723	 1.967276	-1.352995	-12.641270	-3.796098	-1.257134	-109.095200	 88.696440	-158.350300	 66.990190	 69.751780	-65.202420	-17.222740	 2.814797	-24.871470	-2.937940	-13.102850	-6.031992	-3.874902	-10.858240	 2.780287	-5.213516	-0.193813	 3.566525	-1.378229	 35.397820	-2.634230	 0.945415	-0.729032	-2.854242	-3.221752	-8.850767	 0.938584	 94.580930	 86.649820	 171.422500	-28.254610	 80.814040	 30.277340	 5.194768	-6.201880	 27.276160	-25.144720	-13.755820	 10.323930	-8.666559	-7.616652	-37.676750	 5.070815	-0.697434	-9.399699	-2.350882	 35.473990	 5.254307
-9.270839	-31.757390	 0.950816	-32.662320	 19.618610	 3.895347	 3.574090	-34.746790	 175.775400	-2.615790	-43.436150	-1.214584	-1.263033	 82.278080	 0.009793	-2.326342	 37.266590	-0.204638	-0.858272	-35.366520	-179.328600	-2.716902	-42.040720	-0.855170	-1.741331	 83.403110	 0.894002	 2.404512	 21.632720	-0.140496	-5.234752	 14.352600	 2.100075	-9.500501	 1.889836	-1.294748	-12.569560	-3.871445	-1.258177	-108.196000	 88.641310	-159.269200	 67.295680	 69.899580	-65.323750	-16.964320	 2.721319	-24.716960	-2.563205	-13.131850	-6.034312	-3.851408	-10.936280	 2.835723	-5.213516	-0.193813	 3.566525	-1.378229	 35.397820	-2.634230	 0.970598	-0.782659	-2.735820	-3.177367	-8.868485	 1.012363	 94.738490	 86.723680	 171.260400	-26.329370	 80.800100	 27.973620	 5.156299	-6.157397	 27.217550	-25.256180	-13.777100	 10.326430	-8.638417	-7.649013	-37.586780	 5.070815	-0.697434	-9.399699	-2.350882	 35.473990	 5.254307
